<?xml version="1.0" standalone="no"?>
<!DOCTYPE svg PUBLIC "-//W3C//DTD SVG 20010904//EN"
 "http://www.w3.org/TR/2001/REC-SVG-20010904/DTD/svg10.dtd">
<svg version="1.0" xmlns="http://www.w3.org/2000/svg"
 width="1292.000000pt" height="1292.000000pt" viewBox="0 0 1292.000000 1292.000000"
 preserveAspectRatio="xMidYMid meet">
<metadata>
Created by potrace 1.11, written by Peter Selinger 2001-2013
</metadata>
<g transform="translate(0.000000,1292.000000) scale(0.100000,-0.100000)"
fill="#000000" stroke="none">
<path d="M9720 12905 c0 -8 -4 -15 -9 -15 -5 0 -14 -13 -21 -30 -7 -16 -15
-30 -19 -30 -3 0 -22 -25 -41 -55 -19 -30 -38 -55 -42 -55 -5 0 -8 -4 -8 -10
0 -11 -69 -111 -85 -122 -5 -4 -6 -8 -2 -8 4 0 3 -6 -3 -12 -6 -7 -28 -38 -50
-68 -22 -30 -44 -60 -50 -67 -5 -7 -10 -14 -10 -17 0 -2 -49 -76 -110 -163
-60 -87 -116 -166 -122 -177 -7 -10 -28 -38 -46 -62 -18 -24 -29 -44 -25 -44
4 0 3 -4 -3 -8 -6 -4 -42 -52 -80 -107 -37 -55 -72 -101 -76 -103 -4 -2 -8
-10 -8 -18 0 -8 -4 -14 -10 -14 -5 0 -10 -6 -10 -13 0 -7 -8 -22 -18 -33 -9
-10 -34 -44 -55 -74 -61 -91 -105 -154 -114 -165 -4 -5 -30 -44 -58 -85 -27
-41 -52 -77 -55 -80 -14 -14 -50 -70 -50 -79 0 -5 -4 -11 -8 -13 -4 -1 -37
-46 -72 -98 -36 -52 -68 -96 -72 -98 -5 -2 -8 -10 -8 -17 0 -7 -4 -15 -8 -17
-5 -2 -37 -46 -72 -98 -35 -52 -67 -97 -70 -100 -3 -3 -19 -26 -35 -52 -17
-27 -33 -48 -37 -48 -5 0 -8 -5 -8 -10 0 -6 -20 -38 -45 -72 -25 -34 -45 -65
-45 -68 0 -3 182 -6 405 -6 223 1 405 -1 406 -4 16 -96 13 -334 -6 -454 -30
-180 -84 -360 -151 -503 -19 -39 -34 -76 -34 -82 0 -6 -4 -11 -10 -11 -5 0
-10 -6 -10 -14 0 -8 -7 -22 -16 -30 -8 -9 -13 -16 -9 -16 6 0 0 -11 -35 -65
-11 -16 -23 -37 -26 -45 -10 -22 -210 -316 -231 -339 -10 -11 -23 -26 -28 -33
-64 -84 -81 -105 -92 -118 -8 -8 -23 -26 -34 -40 -172 -209 -454 -504 -688
-720 -57 -52 -127 -118 -157 -146 -30 -28 -54 -49 -54 -46 0 3 -6 -1 -12 -10
-17 -20 -188 -168 -348 -298 -41 -34 -86 -72 -100 -84 -24 -21 -170 -136 -235
-186 -180 -137 -231 -176 -240 -183 -9 -7 -206 -152 -250 -183 -11 -8 -67 -48
-125 -89 -58 -41 -109 -78 -115 -82 -5 -4 -77 -53 -160 -108 -82 -55 -152
-102 -155 -105 -3 -3 -52 -37 -110 -74 -105 -69 -361 -245 -370 -255 -3 -4
-50 -40 -105 -81 -55 -41 -102 -77 -105 -80 -3 -3 -27 -23 -55 -45 -27 -22
-61 -50 -75 -62 -14 -12 -36 -31 -50 -42 -115 -96 -431 -404 -534 -521 -87
-100 -231 -283 -309 -395 -42 -60 -81 -115 -87 -122 -5 -7 -10 -14 -10 -16 0
-2 -30 -53 -66 -113 -89 -148 -264 -510 -264 -546 0 -3 -8 -23 -17 -44 -9 -22
-18 -43 -19 -49 -1 -5 -15 -53 -32 -105 -26 -82 -34 -111 -48 -165 -1 -5 -5
-21 -8 -35 -3 -14 -10 -43 -16 -65 -5 -22 -12 -56 -15 -75 -8 -56 -14 -93 -19
-120 -6 -35 -14 -98 -23 -188 -10 -95 -9 -495 0 -577 4 -33 10 -82 13 -110 8
-71 10 -86 17 -120 3 -16 8 -46 11 -65 11 -77 50 -254 63 -290 3 -8 8 -23 10
-33 12 -64 112 -350 166 -477 6 -14 11 -27 12 -30 2 -9 50 -111 91 -195 142
-296 407 -692 618 -925 125 -137 331 -333 398 -378 21 -13 38 -29 38 -33 0 -5
5 -9 10 -9 6 0 29 -14 52 -30 l41 -30 2489 0 2488 0 0 6460 c0 3553 -2 6460
-5 6460 -3 0 -5 -7 -5 -15z m-865 -4317 c-4 -144 -11 -261 -20 -330 -13 -99
-16 -115 -20 -138 -3 -14 -7 -42 -10 -64 -3 -21 -7 -41 -10 -45 -2 -4 -7 -23
-10 -41 -6 -34 -29 -119 -60 -219 -23 -75 -92 -233 -132 -304 -18 -33 -33 -61
-33 -64 0 -7 -129 -198 -148 -219 -9 -11 -29 -35 -44 -55 -46 -61 -177 -200
-269 -284 -95 -87 -132 -119 -194 -168 -33 -27 -69 -56 -80 -65 -140 -117
-548 -397 -985 -677 -148 -95 -185 -119 -190 -126 -3 -3 -20 -14 -39 -24 -19
-9 -39 -21 -45 -27 -6 -5 -63 -42 -126 -83 -63 -40 -120 -78 -127 -84 -7 -6
-15 -11 -18 -11 -9 0 -90 -54 -93 -62 -2 -5 -7 -8 -12 -8 -14 0 -427 -284
-450 -310 -3 -3 -25 -21 -50 -40 -25 -19 -50 -39 -56 -45 -7 -5 -29 -23 -49
-40 -139 -112 -326 -290 -445 -424 -30 -35 -62 -70 -70 -79 -13 -14 -59 -71
-102 -127 -134 -171 -330 -516 -364 -640 -2 -5 -15 -44 -29 -85 -50 -138 -109
-372 -129 -510 -2 -19 -7 -54 -11 -78 -39 -273 -40 -732 -1 -1027 3 -22 8 -65
12 -95 3 -30 8 -58 10 -62 2 -3 6 -28 9 -55 5 -52 11 -85 19 -111 3 -9 8 -37
11 -61 3 -24 8 -48 11 -53 3 -5 8 -25 10 -45 6 -44 70 -307 85 -343 5 -14 12
-36 14 -50 5 -29 91 -295 104 -325 5 -11 18 -45 29 -75 11 -30 32 -86 46 -125
l27 -70 -32 30 c-42 39 -154 151 -200 201 -29 33 -65 77 -207 259 -19 24 -132
195 -132 199 0 3 -13 24 -29 48 -39 58 -211 387 -211 403 0 2 -10 28 -23 57
-13 29 -32 73 -41 98 -10 25 -22 54 -27 65 -21 51 -102 311 -113 365 -3 14
-10 43 -14 65 -9 44 -10 45 -17 78 -8 38 -16 91 -20 127 -2 19 -6 48 -9 63
-19 102 -28 391 -15 532 9 106 20 205 25 230 3 11 9 45 14 75 6 30 19 91 30
135 28 109 27 107 38 135 5 14 10 27 10 30 2 15 62 184 87 244 7 17 13 33 14
36 0 8 114 230 146 285 40 70 167 267 182 283 7 7 20 26 30 42 9 17 21 30 25
30 4 0 8 5 8 10 0 6 9 21 20 33 11 12 48 56 81 97 53 64 180 209 215 244 103
102 256 246 319 299 44 38 89 77 100 87 17 14 97 78 200 157 6 5 28 21 50 38
22 16 42 33 43 37 2 4 9 8 15 8 6 0 20 8 31 19 12 10 100 71 196 135 96 64
180 120 187 126 7 5 14 10 17 10 2 0 31 17 63 38 32 22 103 68 158 103 136 87
129 82 161 103 27 19 84 55 264 171 87 56 450 296 465 308 6 4 87 61 180 127
94 65 175 122 180 127 6 5 57 44 115 88 97 72 316 247 366 291 12 11 48 42 80
69 166 143 386 363 521 521 81 96 233 300 233 313 0 6 4 11 9 11 5 0 24 26 43
57 18 32 48 82 66 113 17 30 40 71 49 90 9 19 19 37 22 40 7 6 43 82 43 90 0
7 18 40 22 40 2 0 2 -64 1 -142z m20 -1720 c-3 -17 -8 -34 -10 -38 -2 -3 -6
-18 -9 -33 -7 -41 -102 -317 -131 -383 -40 -91 -126 -256 -146 -283 -11 -13
-19 -28 -19 -33 0 -5 -6 -16 -12 -23 -26 -29 -38 -44 -38 -49 0 -7 -49 -79
-59 -86 -4 -3 -18 -21 -31 -40 -13 -19 -29 -40 -35 -46 -5 -7 -26 -31 -45 -55
-45 -57 -332 -344 -389 -389 -24 -19 -51 -42 -60 -51 -9 -9 -45 -40 -81 -70
-36 -29 -66 -57 -68 -61 -2 -4 -8 -8 -13 -8 -6 0 -22 -12 -37 -26 -15 -14 -39
-33 -54 -42 -16 -9 -28 -20 -28 -24 0 -4 -7 -8 -15 -8 -8 0 -15 -4 -15 -9 0
-10 -107 -91 -120 -91 -6 0 -10 -3 -10 -7 0 -5 -20 -21 -45 -38 -24 -16 -45
-33 -45 -37 0 -5 -4 -8 -10 -8 -8 0 -90 -57 -165 -115 -11 -8 -45 -32 -75 -53
-138 -95 -195 -136 -200 -141 -3 -3 -39 -33 -80 -66 -61 -49 -135 -116 -244
-221 -6 -6 -33 -37 -61 -69 -90 -103 -105 -122 -135 -165 -13 -19 -28 -39 -33
-45 -14 -17 -119 -179 -126 -195 -3 -8 -24 -49 -46 -90 -21 -41 -40 -77 -40
-80 -1 -3 -14 -32 -29 -65 -55 -120 -135 -382 -160 -520 -2 -16 -7 -41 -10
-55 -4 -14 -9 -45 -12 -70 -2 -25 -7 -58 -9 -75 -26 -185 -27 -597 -1 -810 2
-16 6 -57 10 -90 4 -33 9 -67 11 -75 2 -8 7 -35 10 -60 6 -52 10 -78 32 -180
8 -41 17 -84 18 -95 2 -11 11 -49 20 -85 9 -36 18 -78 21 -95 3 -16 11 -36 16
-43 6 -6 8 -12 5 -12 -5 0 18 -93 41 -167 6 -18 8 -33 5 -33 -3 0 -1 -6 5 -13
8 -10 28 -69 38 -112 4 -19 75 -230 84 -250 23 -51 51 -137 47 -142 -12 -11
-200 196 -301 332 -37 50 -72 97 -79 105 -7 8 -18 28 -26 43 -8 15 -18 27 -23
27 -4 0 -8 7 -8 15 0 8 -4 15 -10 15 -5 0 -10 7 -10 15 0 8 -4 15 -10 15 -5 0
-10 7 -10 15 0 8 -4 15 -8 15 -4 0 -13 12 -20 27 -6 16 -26 51 -43 78 -39 61
-184 345 -223 435 -15 36 -32 74 -36 85 -46 106 -120 314 -151 425 -7 25 -14
50 -15 55 -26 92 -64 257 -69 302 -2 11 -6 29 -9 40 -16 53 -36 291 -38 438
-1 174 8 259 47 450 8 40 60 206 75 240 13 28 43 99 45 105 4 13 30 66 35 70
3 3 13 23 23 45 17 37 137 232 164 265 6 8 40 51 74 95 93 118 103 129 244
270 136 135 245 236 245 226 0 -3 4 -1 8 4 8 12 126 110 163 137 36 26 173
126 184 136 6 4 33 23 60 42 28 19 55 38 60 42 6 5 89 62 185 128 96 65 180
123 185 127 6 5 47 33 93 63 45 30 82 58 82 62 0 5 5 8 11 8 8 0 162 103 204
137 6 4 30 21 55 38 25 16 48 34 52 40 4 5 8 7 8 3 0 -4 8 -1 18 7 9 8 121 88
248 177 128 90 245 173 260 185 16 12 61 45 99 73 39 28 77 56 85 63 9 7 42
32 75 57 74 55 55 40 215 167 162 128 149 118 181 146 14 12 52 45 84 72 32
28 70 60 84 72 14 13 27 23 29 23 1 0 0 -14 -3 -32z m74 -1164 c-36 -107 -147
-319 -234 -450 -48 -71 -91 -130 -96 -132 -5 -2 -9 -8 -9 -14 0 -11 -89 -120
-102 -126 -5 -2 -8 -8 -8 -13 0 -6 -10 -20 -22 -33 -13 -13 -43 -47 -68 -76
-41 -48 -82 -95 -148 -169 -12 -14 -39 -44 -60 -66 -20 -22 -62 -69 -92 -104
-30 -35 -64 -74 -75 -87 -11 -12 -38 -43 -60 -69 -22 -26 -47 -55 -55 -64 -30
-33 -168 -218 -218 -293 -85 -126 -190 -322 -228 -423 -10 -27 -23 -53 -28
-57 -6 -4 -8 -8 -3 -8 4 0 0 -17 -9 -37 -9 -21 -18 -51 -21 -68 -3 -16 -9 -38
-14 -47 -12 -23 -41 -148 -55 -238 -2 -19 -7 -46 -9 -60 -13 -75 -19 -185 -18
-350 1 -169 5 -243 18 -340 3 -19 7 -56 10 -81 3 -25 8 -56 11 -70 2 -13 7
-35 9 -49 2 -14 6 -34 8 -45 2 -11 7 -36 11 -55 6 -34 9 -48 26 -120 8 -33 11
-47 26 -103 3 -12 7 -29 9 -37 1 -8 5 -22 8 -30 3 -8 26 -85 52 -170 58 -193
169 -495 242 -660 8 -19 21 -48 28 -65 8 -16 23 -51 34 -77 12 -26 21 -51 21
-56 0 -5 7 -15 15 -22 9 -7 13 -15 11 -18 -3 -2 4 -22 14 -43 30 -57 25 -57
-27 2 -27 29 -62 68 -80 86 -17 18 -30 33 -28 33 2 0 -8 12 -22 28 -32 34
-164 197 -223 277 -25 33 -48 62 -52 63 -5 2 -8 8 -8 13 0 5 -19 36 -42 68
-126 175 -309 504 -392 706 -224 541 -285 994 -200 1483 12 69 60 234 86 297
16 39 32 79 35 90 3 11 11 27 17 35 6 8 25 41 41 73 35 67 129 201 200 283 87
101 198 208 374 360 31 27 331 256 402 307 133 96 384 286 495 375 167 134
393 355 501 489 10 12 19 21 20 19 2 -1 -6 -29 -18 -62z m107 -2795 c0 -2287
-1 -2379 -18 -2357 -10 13 -18 26 -18 29 0 3 -22 44 -48 90 -44 75 -186 356
-187 369 -1 3 -9 23 -19 45 -90 195 -226 584 -243 690 -3 17 -9 37 -14 46 -4
9 -11 31 -14 50 -3 19 -10 52 -16 74 -5 22 -11 51 -14 65 -2 14 -9 48 -15 75
-6 28 -14 66 -16 85 -3 19 -7 46 -9 60 -18 103 -26 177 -41 340 -16 180 -9
713 11 810 3 14 8 48 10 75 3 28 7 61 10 75 3 14 7 41 10 60 2 19 7 46 9 60 3
13 8 40 11 60 5 34 8 50 20 103 3 12 7 31 9 42 11 56 48 203 57 225 5 14 11
36 14 50 8 43 38 134 48 148 5 6 7 12 3 12 -3 0 0 17 8 38 8 20 17 46 22 57 4
11 8 25 10 30 1 6 16 46 34 90 18 44 39 98 47 120 8 22 18 44 22 50 4 5 13 29
21 53 7 23 17 42 22 42 4 0 8 6 8 13 0 17 147 316 165 337 8 8 13 17 12 20 -1
5 82 150 87 150 1 0 2 -1071 2 -2381z"/>
</g>
</svg>
